Coordinates
version=1
nRows=16
nColumns=40
inDegrees=yes

Units are S.I. units (second, meters, Newtons, ...)
If the header above contains a line with 'inDegrees', this indicates whether rotational values are in degrees (yes) or radians (no).

endheader
time	pelvis_tilt	pelvis_list	pelvis_rotation	pelvis_tx	pelvis_ty	pelvis_tz	hip_flexion_r	hip_adduction_r	hip_rotation_r	knee_angle_r	knee_angle_r_beta	ankle_angle_r	subtalar_angle_r	mtp_angle_r	hip_flexion_l	hip_adduction_l	hip_rotation_l	knee_angle_l	knee_angle_l_beta	ankle_angle_l	subtalar_angle_l	mtp_angle_l	lumbar_extension	lumbar_bending	lumbar_rotation	arm_flex_r	arm_add_r	arm_rot_r	elbow_flex_r	pro_sup_r	wrist_flex_r	wrist_dev_r	arm_flex_l	arm_add_l	arm_rot_l	elbow_flex_l	pro_sup_l	wrist_flex_l	wrist_dev_l
      2.26500000	     -8.09473809	     -2.50696125	     -2.18686360	      0.17182908	      0.45134697	     -1.21250117	     98.43888871	    -47.36930848	     17.74122648	    120.47630973	      2.10270828	     35.27708231	     14.95495776	      0.00000000	    108.06545726	    -49.42459115	     28.96220768	    121.07759826	      2.11320274	     32.31903936	     23.20412309	      0.00000000	    -28.74864728	      3.73722129	      1.38709235	     44.99992434	    -14.99999999	     44.99992434	     75.00017585	     45.00000026	      0.00000000	      0.00000000	     44.99992434	    -14.99999999	     44.99992434	     75.00017585	     45.00000026	      0.00000000	      0.00000000
      2.27000000	     -8.53130787	     -2.50446263	     -2.21665336	      0.17149889	      0.45423906	     -1.21232587	     98.28505800	    -47.31182975	     17.14111389	    120.02643340	      2.09485645	     35.13017524	     14.97584344	      0.00000000	    107.87221012	    -49.41982453	     28.38348942	    120.60705107	      2.10499014	     32.17820693	     23.19721778	      0.00000000	    -28.15151097	      3.76420584	      1.38786779	     44.99992434	    -14.99999999	     44.99992434	     75.00017585	     45.00000026	      0.00000000	      0.00000000	     44.99992434	    -14.99999999	     44.99992434	     75.00017585	     45.00000026	      0.00000000	      0.00000000
      2.27500000	     -8.96422062	     -2.49730152	     -2.25507776	      0.17121187	      0.45720520	     -1.21210790	     98.11559642	    -47.27366581	     16.50081932	    119.56866305	      2.08686685	     34.96626121	     14.97166016	      0.00000000	    107.67288138	    -49.42649282	     27.78255112	    120.12555581	      2.09658646	     32.01407046	     23.13356516	      0.00000000	    -27.54744203	      3.75420029	      1.40517271	     44.99992434	    -14.99999999	     44.99992434	     75.00017585	     45.00000026	      0.00000000	      0.00000000	     44.99992434	    -14.99999999	     44.99992434	     75.00017585	     45.00000026	      0.00000000	      0.00000000
      2.28000000	     -9.38569079	     -2.49139531	     -2.29368362	      0.17086160	      0.46029473	     -1.21191525	     97.90665867	    -47.19856877	     15.85544122	    119.07965079	      2.07833198	     34.77278236	     14.90969266	      0.00000000	    107.43346373	    -49.41563100	     27.15732176	    119.63087854	      2.08795272	     31.82046453	     22.98591124	      0.00000000	    -26.95483879	      3.75641420	      1.42113125	     44.99992434	    -14.99999999	     44.99992434	     75.00017585	     45.00000026	      0.00000000	      0.00000000	     44.99992434	    -14.99999999	     44.99992434	     75.00017585	     45.00000026	      0.00000000	      0.00000000
      2.28500000	     -9.57087111	     -2.46724412	     -2.31539763	      0.17032562	      0.46446280	     -1.21175910	     97.34243343	    -47.13011092	     15.04729894	    118.48476701	      2.06794930	     34.30957487	     14.14784642	      0.00000000	    106.75239108	    -49.40687976	     26.24946928	    119.07140208	      2.07818801	     31.40621294	     21.97645547	      0.00000000	    -26.72867058	      3.71710917	      1.44909102	     44.99992434	    -14.99999999	     44.99992434	     75.00017585	     45.00000026	      0.00000000	      0.00000000	     44.99992434	    -14.99999999	     44.99992434	     75.00017585	     45.00000026	      0.00000000	      0.00000000
      2.29000000	    -10.01636069	     -2.46033456	     -2.35371968	      0.17013194	      0.46749806	     -1.21150671	     97.16611903	    -47.06799962	     14.43228269	    118.02243274	      2.05988004	     34.18127520	     14.20630736	      0.00000000	    106.54388750	    -49.41476088	     25.65713871	    118.56208936	      2.06929883	     31.27818569	     22.01343898	      0.00000000	    -26.07091894	      3.72256920	      1.45694917	     44.99992434	    -14.99999999	     44.99992434	     75.00017585	     45.00000026	      0.00000000	      0.00000000	     44.99992434	    -14.99999999	     44.99992434	     75.00017585	     45.00000026	      0.00000000	      0.00000000
      2.29500000	    -10.44649701	     -2.45109374	     -2.39640819	      0.16985851	      0.47069568	     -1.21128474	     96.93369547	    -46.96779623	     13.78847321	    117.50873584	      2.05091434	     34.00916850	     14.18951093	      0.00000000	    106.27659225	    -49.40058975	     25.03077081	    118.04155451	      2.06021378	     31.10873183	     21.93583051	      0.00000000	    -25.43286505	      3.71749761	      1.47374759	     44.99992434	    -14.99999999	     44.99992434	     75.00017585	     45.00000026	      0.00000000	      0.00000000	     44.99992434	    -14.99999999	     44.99992434	     75.00017585	     45.00000026	      0.00000000	      0.00000000
      2.30000000	    -10.87328222	     -2.44252616	     -2.44057271	      0.16961958	      0.47403688	     -1.21104190	     96.66914778	    -46.87257145	     13.11670354	    116.97699891	      2.04163378	     33.81587968	     14.12429092	      0.00000000	    105.97897179	    -49.39826463	     24.37405527	    117.49543026	      2.05068211	     30.91914975	     21.79132385	      0.00000000	    -24.81376839	      3.70840510	      1.49616365	     44.99992434	    -14.99999999	     44.99992434	     75.00017585	     45.00000026	      0.00000000	      0.00000000	     44.99992434	    -14.99999999	     44.99992434	     75.00017585	     45.00000026	      0.00000000	      0.00000000
      2.30500000	    -11.25031535	     -2.42787703	     -2.48541789	      0.16935871	      0.47750680	     -1.21077904	     96.34526551	    -46.75425033	     12.43920093	    116.43693437	      2.03220788	     33.59530802	     13.99053203	      0.00000000	    105.61512937	    -49.38987419	     23.70481893	    116.94899335	      2.04114499	     30.70631192	     21.56170762	      0.00000000	    -24.21557850	      3.69828388	      1.52236250	     44.99992434	    -14.99999999	     44.99992434	     75.00017585	     45.00000026	      0.00000000	      0.00000000	     44.99992434	    -14.99999999	     44.99992434	     75.00017585	     45.00000026	      0.00000000	      0.00000000
      2.31000000	    -11.22725868	     -2.39768087	     -2.48104500	      0.16894468	      0.48253952	     -1.21066240	     95.47208354	    -46.70331394	     11.58539828	    115.76477211	      2.02047643	     33.11464675	     13.11077371	      0.00000000	    104.54888983	    -49.38518687	     22.66218986	    116.29270278	      2.02969056	     30.32638946	     20.47988241	      0.00000000	    -24.22657619	      3.66129124	      1.53761004	     44.99992434	    -14.99999999	     44.99992434	     75.00017585	     45.00000026	      0.00000000	      0.00000000	     44.99992434	    -14.99999999	     44.99992434	     75.00017585	     45.00000026	      0.00000000	      0.00000000
      2.31500000	    -11.67365980	     -2.38581151	     -2.51804192	      0.16885562	      0.48582452	     -1.21038244	     95.23525554	    -46.61738466	     10.94171606	    115.24469671	      2.01139940	     32.98235510	     13.17081505	      0.00000000	    104.28488342	    -49.38528674	     22.03979643	    115.73803886	      2.02000985	     30.19422778	     20.51915592	      0.00000000	    -23.51437004	      3.64558817	      1.54997167	     44.99992434	    -14.99999999	     44.99992434	     75.00017585	     45.00000026	      0.00000000	      0.00000000	     44.99992434	    -14.99999999	     44.99992434	     75.00017585	     45.00000026	      0.00000000	      0.00000000
      2.32000000	    -11.77858445	     -2.35315305	     -2.53005674	      0.16856575	      0.49047766	     -1.21017937	     94.49447956	    -46.51112198	     10.17864232	    114.58361231	      1.99986130	     32.64402221	     12.71884087	      0.00000000	    103.40616089	    -49.38559420	     21.10683136	    115.07779526	      2.00848642	     29.92468299	     19.93085458	      0.00000000	    -23.30654349	      3.60006405	      1.57977223	     44.99992434	    -14.99999999	     44.99992434	     75.00017585	     45.00000026	      0.00000000	      0.00000000	     44.99992434	    -14.99999999	     44.99992434	     75.00017585	     45.00000026	      0.00000000	      0.00000000
      2.32500000	    -12.17485576	     -2.34131252	     -2.57607019	      0.16845519	      0.49400507	     -1.20994463	     94.18147844	    -46.38309727	      9.53324236	    114.00517591	      1.98976568	     32.48517893	     12.71911216	      0.00000000	    103.02210837	    -49.37024626	     20.45995701	    114.50106971	      1.99842066	     29.77151838	     19.89074421	      0.00000000	    -22.64471266	      3.59235728	      1.56858597	     44.99992434	    -14.99999999	     44.99992434	     75.00017585	     45.00000026	      0.00000000	      0.00000000	     44.99992434	    -14.99999999	     44.99992434	     75.00017585	     45.00000026	      0.00000000	      0.00000000
      2.33000000	    -12.29630798	     -2.30561590	     -2.55777153	      0.16838020	      0.49864195	     -1.20978795	     93.45710263	    -46.36332368	      8.76151830	    113.33854205	      1.97813073	     32.18998344	     12.33271469	      0.00000000	    102.16126106	    -49.36881021	     19.52694438	    113.82740150	      1.98666294	     29.53712205	     19.39796860	      0.00000000	    -22.36729842	      3.54986688	      1.57618543	     44.99992434	    -14.99999999	     44.99992434	     75.00017585	     45.00000026	      0.00000000	      0.00000000	     44.99992434	    -14.99999999	     44.99992434	     75.00017585	     45.00000026	      0.00000000	      0.00000000
      2.33500000	    -12.49731860	     -2.27230563	     -2.55839547	      0.16832410	      0.50301546	     -1.20949277	     92.85601783	    -46.28567981	      8.04020002	    112.73291718	      1.96756058	     31.96517223	     12.14905739	      0.00000000	    101.42306394	    -49.38379582	     18.65131590	    113.15008298	      1.97484150	     29.35604082	     19.14957834	      0.00000000	    -21.97314192	      3.50775833	      1.59433099	     44.99992434	    -14.99999999	     44.99992434	     75.00017585	     45.00000026	      0.00000000	      0.00000000	     44.99992434	    -14.99999999	     44.99992434	     75.00017585	     45.00000026	      0.00000000	      0.00000000
      2.34000000	    -12.94977575	     -2.25888980	     -2.62844158	      0.16832308	      0.50646843	     -1.20921504	     92.60094961	    -46.13479355	      7.40115233	    112.14996321	      1.95738611	     31.82558857	     12.20467437	      0.00000000	    101.11592547	    -49.37132682	     18.05456050	    112.57606409	      1.96482298	     29.20338153	     19.17450995	      0.00000000	    -21.19700865	      3.49570447	      1.58891107	     44.99992434	    -14.99999999	     44.99992434	     75.00017585	     45.00000026	      0.00000000	      0.00000000	     44.99992434	    -14.99999999	     44.99992434	     75.00017585	     45.00000026	      0.00000000	      0.00000000
